<svg width="20" height="19" viewBox="0 0 20 19" fill="none" xmlns="http://www.w3.org/2000/svg">
<path d="M2.61911 18.3797V0.682007H8.05481C11.173 0.682007 13.4652 1.47419 14.9316 3.05855C16.4148 4.64291 17.1565 6.81719 17.1565 9.58139C17.1565 12.295 16.4148 14.444 14.9316 16.0284C13.4652 17.5959 11.173 18.3797 8.05481 18.3797H2.61911ZM4.74283 16.6099H8.00425C9.72345 16.6099 11.0887 16.3318 12.1 15.7756C13.1281 15.2025 13.8613 14.3935 14.2996 13.3485C14.7378 12.2866 14.9569 11.0309 14.9569 9.58139C14.9569 8.09816 14.7378 6.82562 14.2996 5.76376C13.8613 4.7019 13.1281 3.88444 12.1 3.31137C11.0887 2.7383 9.72345 2.45177 8.00425 2.45177H4.74283V16.6099Z" fill="#EAC52D"/>
<rect x="0.748047" y="6.64316" width="18.2595" height="1.75572" fill="#EAC52D"/>
<rect x="0.748047" y="10.2657" width="18.2595" height="1.75572" fill="#EAC52D"/>
</svg>
