<svg width="140" height="30" viewBox="0 0 140 30" fill="none" xmlns="http://www.w3.org/2000/svg">
<path d="M19.5361 9.30762C19.5361 11.9085 18.8333 13.9893 17.4277 15.5498C15.9779 17.1546 13.9691 17.957 11.4014 17.957C10.7705 17.957 9.81315 17.9349 8.5293 17.8906C7.25651 17.8353 6.29915 17.8076 5.65723 17.8076C5.30306 17.8076 5.12598 18.0345 5.12598 18.4883C5.12598 19.0749 5.15918 19.9548 5.22559 21.1279C5.30306 22.3011 5.3418 23.181 5.3418 23.7676C5.3418 23.9557 5.23665 24.0498 5.02637 24.0498C4.79395 24.0498 4.43978 24.0277 3.96387 23.9834C3.49902 23.9281 3.15039 23.9004 2.91797 23.9004C2.71875 23.9004 2.42546 23.917 2.03809 23.9502C1.65072 23.9834 1.36296 24 1.1748 24C0.898112 24 0.759766 23.8285 0.759766 23.4854C0.759766 22.279 0.80957 20.4583 0.90918 18.0234C1.01986 15.5885 1.0752 13.7624 1.0752 12.5449C1.0752 9.0918 0.947917 5.38411 0.693359 1.42188L0.676758 1.17285C0.66569 0.929362 0.80957 0.807617 1.1084 0.807617C1.70605 0.807617 2.60254 0.813151 3.79785 0.824219C5.00423 0.835286 5.91178 0.84082 6.52051 0.84082C7.04069 0.84082 7.82096 0.818685 8.86133 0.774414C9.90169 0.730143 10.682 0.708008 11.2021 0.708008C13.6481 0.708008 15.6569 1.53809 17.2285 3.19824C18.7669 4.8252 19.5361 6.86165 19.5361 9.30762ZM15.3525 9.55664C15.3525 7.89648 14.9043 6.56836 14.0078 5.57227C13.0781 4.5319 11.7943 4.01172 10.1562 4.01172C9.64714 4.01172 8.73958 4.05599 7.43359 4.14453C5.93945 4.23307 5.17025 4.32161 5.12598 4.41016C5.0485 4.54297 5.00977 6.44661 5.00977 10.1211C5.00977 10.5859 5.02083 11.2832 5.04297 12.2129C5.07617 13.1426 5.09277 13.8398 5.09277 14.3047C5.09277 14.4043 5.21452 14.4818 5.45801 14.5371C6.06673 14.6589 7.75456 14.7197 10.5215 14.7197C12.071 14.7197 13.2773 14.2383 14.1406 13.2754C14.9486 12.3568 15.3525 11.1172 15.3525 9.55664ZM38.0469 8.97559C38.0469 9.01986 38.0303 9.11947 37.9971 9.27441C37.5654 11.8089 37.3496 13.9948 37.3496 15.832C37.3496 15.9427 37.488 18.4274 37.7646 23.2861L37.7812 23.5186C37.7923 23.8395 37.6429 24 37.333 24C37.0342 24 36.5749 24.0332 35.9551 24.0996C35.3464 24.1771 34.8926 24.2158 34.5938 24.2158C34.3835 24.2158 34.223 23.8285 34.1123 23.0537C34.0016 22.279 33.8965 21.8916 33.7969 21.8916C33.7305 21.8916 33.4316 22.1074 32.9004 22.5391C32.2474 23.0703 31.6387 23.4743 31.0742 23.751C30.1999 24.1937 29.3255 24.415 28.4512 24.415C26.304 24.415 24.4945 23.5573 23.0225 21.8418C21.6279 20.2038 20.9307 18.2946 20.9307 16.1143C20.9307 13.6572 21.6335 11.6263 23.0391 10.0215C24.5111 8.35026 26.4479 7.51465 28.8496 7.51465C30.543 7.51465 32.0205 8.10124 33.2822 9.27441C33.4704 9.49577 33.7637 9.81673 34.1621 10.2373C34.1953 10.2705 34.2285 10.2871 34.2617 10.2871C34.3281 10.2871 34.4222 9.93848 34.5439 9.24121C34.6657 8.54395 34.8206 8.19531 35.0088 8.19531C35.3076 8.19531 35.8665 8.27832 36.6855 8.44434C37.5931 8.64355 38.0469 8.82064 38.0469 8.97559ZM33.8135 15.915C33.8135 14.5537 33.4095 13.3861 32.6016 12.4121C31.7493 11.3607 30.6592 10.835 29.3311 10.835C28.0029 10.835 26.8962 11.3551 26.0107 12.3955C25.1585 13.3916 24.7324 14.5648 24.7324 15.915C24.7324 17.2542 25.1585 18.4163 26.0107 19.4014C26.8962 20.4307 28.0029 20.9453 29.3311 20.9453C30.626 20.9453 31.7106 20.4196 32.585 19.3682C33.404 18.3831 33.8135 17.2321 33.8135 15.915ZM54.748 12.4453C54.748 14.3158 54.6927 15.4447 54.582 15.832C54.4382 16.3301 53.0658 18.5049 50.4648 22.3564C47.875 26.1969 46.3366 28.3441 45.8496 28.7979C45.4069 29.1963 43.9792 29.3955 41.5664 29.3955C41.2786 29.3955 41.0905 29.3623 41.002 29.2959C40.9245 29.2406 40.7363 28.8421 40.4375 28.1006C40.1497 27.359 40.0059 26.9163 40.0059 26.7725C40.0059 26.529 40.2992 26.4072 40.8857 26.4072C42.1253 26.4072 43.0384 26.2301 43.625 25.876C43.8242 25.7542 44.123 25.3724 44.5215 24.7305C44.931 24.0885 45.1357 23.6569 45.1357 23.4355C45.1357 23.1367 44.3333 21.9691 42.7285 19.9326C41.0352 17.7744 40.0889 16.4076 39.8896 15.832C39.7347 15.3783 39.6572 14.2936 39.6572 12.5781C39.6572 12.1576 39.6628 11.5267 39.6738 10.6855C39.6849 9.83333 39.6904 9.19141 39.6904 8.75977C39.6904 8.51628 39.8232 8.39453 40.0889 8.39453C40.443 8.39453 40.9632 8.41667 41.6494 8.46094C42.3467 8.50521 42.8724 8.52734 43.2266 8.52734C43.4036 8.52734 43.4922 8.64355 43.4922 8.87598C43.4922 9.18587 43.4756 9.65072 43.4424 10.2705C43.4092 10.8903 43.3926 11.3551 43.3926 11.665C43.3926 13.0153 43.4368 14.0225 43.5254 14.6865C43.5918 15.1071 44.195 16.153 45.335 17.8242C46.4749 19.4954 47.1777 20.3311 47.4434 20.3311C47.6315 20.3311 48.2292 19.512 49.2363 17.874C50.2435 16.2249 50.7803 15.2067 50.8467 14.8193C50.9352 14.266 50.9795 13.2588 50.9795 11.7979C50.9795 11.4769 50.9463 11.0065 50.8799 10.3867C50.8135 9.75586 50.7803 9.28548 50.7803 8.97559C50.7803 8.69889 50.8688 8.56055 51.0459 8.56055C51.4001 8.56055 51.9313 8.53841 52.6396 8.49414C53.359 8.4388 53.8958 8.41113 54.25 8.41113C54.582 8.41113 54.748 9.75586 54.748 12.4453ZM82.207 23.3857C82.207 23.8174 82.0798 24.0332 81.8252 24.0332C81.6592 24.0332 81.4046 24.0166 81.0615 23.9834C80.7295 23.9502 80.4749 23.9336 80.2979 23.9336C80.1097 23.9336 79.8275 23.9447 79.4512 23.9668C79.0749 23.9889 78.7926 24 78.6045 24C78.3721 24 78.2559 23.7399 78.2559 23.2197C78.2559 22.7106 78.2725 21.9525 78.3057 20.9453C78.3499 19.9271 78.3721 19.1634 78.3721 18.6543C78.3721 15.8542 78.361 14.2936 78.3389 13.9727C78.2503 12.8327 78.0179 12.0469 77.6416 11.6152C77.21 11.1504 76.4408 10.918 75.334 10.918C74.6367 10.918 73.8509 11.25 72.9766 11.9141C72.069 12.6113 71.5986 13.2975 71.5654 13.9727C71.5212 14.8359 71.499 16.4131 71.499 18.7041C71.499 19.2464 71.5212 20.0599 71.5654 21.1445C71.6097 22.2292 71.6318 23.0426 71.6318 23.585C71.6318 23.8838 71.5322 24.0332 71.333 24.0332C71.1338 24.0332 70.8405 24.0166 70.4531 23.9834C70.0768 23.9502 69.7891 23.9336 69.5898 23.9336C69.4128 23.9336 69.1527 23.9447 68.8096 23.9668C68.4665 23.9889 68.2064 24 68.0293 24C67.8079 24 67.6973 23.8395 67.6973 23.5186C67.6973 22.9873 67.7139 22.1904 67.7471 21.1279C67.7803 20.0544 67.7969 19.252 67.7969 18.7207V14.7197C67.7969 13.4691 67.6475 12.5781 67.3486 12.0469C66.9281 11.2943 66.1257 10.918 64.9414 10.918C64.2441 10.918 63.4141 11.2113 62.4512 11.7979C61.3887 12.4398 60.8574 13.0872 60.8574 13.7402V18.5879C60.8574 19.1413 60.863 19.9658 60.874 21.0615C60.8851 22.1572 60.8906 22.9762 60.8906 23.5186C60.8906 23.8395 60.7633 24 60.5088 24H57.4209C57.1995 24 57.0889 23.8506 57.0889 23.5518C57.0889 22.6553 57.0944 21.3105 57.1055 19.5176C57.1165 17.7135 57.1221 16.3633 57.1221 15.4668C57.1221 13.4414 56.9062 11.4215 56.4746 9.40723C56.4414 9.26335 56.4248 9.14714 56.4248 9.05859C56.4248 8.91471 56.4746 8.83171 56.5742 8.80957C56.9837 8.7653 57.5814 8.68229 58.3672 8.56055C58.7324 8.44987 59.2803 8.32812 60.0107 8.19531L60.1436 8.17871C60.2764 8.17871 60.3981 8.57161 60.5088 9.35742C60.6305 10.1322 60.7357 10.5195 60.8242 10.5195C60.8242 10.5195 61.1009 10.276 61.6543 9.78906C62.3073 9.22461 62.9603 8.77637 63.6133 8.44434C64.554 7.95736 65.4948 7.71387 66.4355 7.71387C68.9811 7.71387 70.6025 8.75423 71.2998 10.835C71.986 9.94954 72.8382 9.21908 73.8564 8.64355C74.9411 8.02376 76.0146 7.71387 77.0771 7.71387C79.1247 7.71387 80.5413 8.31152 81.3271 9.50684C81.8916 10.3923 82.1738 11.7923 82.1738 13.707C82.1738 14.0723 82.1628 14.6367 82.1406 15.4004C82.1185 16.1641 82.1074 16.7285 82.1074 17.0938C82.1074 17.791 82.124 18.8424 82.1572 20.248C82.1904 21.6426 82.207 22.6885 82.207 23.3857ZM99.5557 15.085C99.5557 15.904 99.2015 16.4518 98.4932 16.7285C98.0173 16.9056 94.5918 17.2321 88.2168 17.708C88.3607 18.682 88.8975 19.512 89.8271 20.1982C90.7126 20.8512 91.6644 21.1777 92.6826 21.1777C94.4313 21.1777 96.0361 20.6133 97.4971 19.4844C97.6742 19.3405 97.8512 19.1966 98.0283 19.0527C98.1169 19.0527 98.1722 19.0638 98.1943 19.0859C98.2275 19.1081 98.4378 19.4954 98.8252 20.248C99.2126 20.9896 99.4062 21.388 99.4062 21.4434C99.4062 21.5098 99.3177 21.637 99.1406 21.8252C97.5137 23.5518 95.4274 24.415 92.8818 24.415C90.3141 24.415 88.2666 23.6514 86.7393 22.124C85.2119 20.5856 84.4482 18.5381 84.4482 15.9814C84.4482 13.7015 85.1787 11.7148 86.6396 10.0215C88.1781 8.26172 90.0651 7.38184 92.3008 7.38184C94.3815 7.38184 96.1191 8.14551 97.5137 9.67285C98.875 11.1559 99.5557 12.96 99.5557 15.085ZM95.6045 14.0723C95.6045 13.1536 95.2393 12.3402 94.5088 11.6318C93.7894 10.9235 92.9759 10.5693 92.0684 10.5693C91.0501 10.5693 90.1426 10.9788 89.3457 11.7979C88.5599 12.6169 88.167 13.5355 88.167 14.5537C88.167 14.7861 88.3662 14.9023 88.7646 14.9023C90.4027 14.9023 92.3617 14.7363 94.6416 14.4043C95.2835 14.3158 95.6045 14.2051 95.6045 14.0723ZM116.522 23.668C116.522 23.9115 116.412 24.0332 116.19 24.0332C115.825 24.0332 115.277 24.0277 114.547 24.0166C113.827 24.0055 113.285 24 112.92 24C112.721 24 112.621 23.8395 112.621 23.5186C112.621 22.9762 112.638 22.1517 112.671 21.0449C112.704 19.9382 112.721 19.1081 112.721 18.5547C112.721 18.112 112.715 17.4535 112.704 16.5791C112.693 15.6937 112.688 15.0296 112.688 14.5869C112.688 13.3252 112.505 12.4342 112.14 11.9141C111.697 11.2943 110.878 10.9844 109.683 10.9844C109.129 10.9844 108.36 11.2943 107.375 11.9141C106.335 12.5671 105.814 13.1481 105.814 13.6572V23.6182C105.814 23.8949 105.709 24.0332 105.499 24.0332C105.145 24.0332 104.614 24.0277 103.905 24.0166C103.197 24.0055 102.666 24 102.312 24C102.079 24 101.963 23.8727 101.963 23.6182C101.963 22.7438 101.974 21.4323 101.996 19.6836C102.029 17.9349 102.046 16.6178 102.046 15.7324C102.046 13.375 101.797 11.2002 101.299 9.20801C101.266 9.1084 101.249 9.03646 101.249 8.99219C101.249 8.88151 101.321 8.80404 101.465 8.75977C101.542 8.7487 102.173 8.64909 103.357 8.46094C104.553 8.26172 105.178 8.16211 105.233 8.16211C105.3 8.16211 105.344 8.25065 105.366 8.42773C105.422 9.11393 105.549 9.80566 105.748 10.5029C106.324 10.0492 107.082 9.4847 108.022 8.80957C109.185 8.10124 110.308 7.74707 111.393 7.74707C113.473 7.74707 114.896 8.35026 115.659 9.55664C116.224 10.4421 116.506 11.8753 116.506 13.8564C116.506 14.1995 116.495 14.7253 116.473 15.4336C116.462 16.1419 116.456 16.6732 116.456 17.0273C116.456 17.7689 116.467 18.8757 116.489 20.3477C116.511 21.8197 116.522 22.9264 116.522 23.668ZM128.94 20.9453C128.94 21.1888 128.918 21.5208 128.874 21.9414C128.819 22.4616 128.785 22.7992 128.774 22.9541C128.763 23.1533 128.747 23.2751 128.725 23.3193C128.68 23.3968 128.575 23.4743 128.409 23.5518C127.502 23.9834 126.074 24.1992 124.126 24.1992C121.536 24.1992 120.241 23.026 120.241 20.6797C120.241 19.7389 120.263 18.3278 120.308 16.4463C120.352 14.5537 120.374 13.137 120.374 12.1963C120.374 11.7425 120.147 11.499 119.693 11.4658C119.284 11.4658 118.88 11.4603 118.481 11.4492C118.249 11.3939 118.133 10.9401 118.133 10.0879C118.133 9.76693 118.155 9.42936 118.199 9.0752C118.232 8.80957 118.41 8.64909 118.73 8.59375C119.007 8.59375 119.278 8.58822 119.544 8.57715C120.053 8.55501 120.308 8.32812 120.308 7.89648C120.308 7.45378 120.291 6.77865 120.258 5.87109C120.236 4.96354 120.225 4.28288 120.225 3.8291C120.225 3.02116 120.38 2.61719 120.689 2.61719C120.789 2.61719 121.829 2.78874 123.811 3.13184C124.065 3.16504 124.192 3.28678 124.192 3.49707C124.192 3.98405 124.154 4.71452 124.076 5.68848C124.01 6.66243 123.977 7.3929 123.977 7.87988C123.977 8.20085 124.126 8.36133 124.425 8.36133H128.409C128.597 8.36133 128.691 8.42773 128.691 8.56055C128.691 8.69336 128.669 8.90918 128.625 9.20801C128.592 9.49577 128.575 9.71159 128.575 9.85547C128.575 10.0215 128.581 10.276 128.592 10.6191C128.603 10.9622 128.608 11.2168 128.608 11.3828C128.608 11.5931 128.453 11.6982 128.144 11.6982C127.701 11.6982 127.031 11.6706 126.135 11.6152C125.238 11.5488 124.569 11.5156 124.126 11.5156C124.037 11.5156 123.971 11.8311 123.927 12.4619C123.871 13.2477 123.844 14.349 123.844 15.7656V18.2393C123.844 19.1911 123.932 19.8551 124.109 20.2314C124.375 20.807 124.923 21.0947 125.753 21.0947C126.096 21.0947 126.6 21.0228 127.264 20.8789C127.928 20.724 128.42 20.6465 128.741 20.6465C128.874 20.6465 128.94 20.7461 128.94 20.9453ZM139.084 18.8867C139.084 20.5358 138.425 21.8584 137.108 22.8545C135.913 23.762 134.458 24.2158 132.742 24.2158C132.078 24.2158 131.702 24.1992 131.613 24.166C131.425 24.0775 131.331 23.8063 131.331 23.3525C131.331 23.109 131.298 22.7438 131.231 22.2568C131.176 21.7699 131.148 21.4102 131.148 21.1777C131.148 21.0339 131.248 20.9398 131.447 20.8955C131.591 20.8623 131.796 20.8623 132.062 20.8955C132.405 20.9287 132.571 20.9453 132.56 20.9453C134.651 20.9453 135.697 20.3034 135.697 19.0195C135.697 18.4108 135.238 17.8519 134.319 17.3428C132.825 16.5238 131.967 16.0202 131.746 15.832C130.827 15.0462 130.368 14.0169 130.368 12.7441C130.368 11.084 130.993 9.78906 132.244 8.85938C133.373 8.0293 134.801 7.61426 136.527 7.61426C136.682 7.61426 136.793 7.6862 136.859 7.83008C136.937 7.97396 137.075 8.4222 137.274 9.1748C137.485 9.92741 137.59 10.3812 137.59 10.5361C137.59 10.6579 137.485 10.7354 137.274 10.7686C136.566 10.8682 135.852 10.9622 135.133 11.0508C134.281 11.2832 133.854 11.748 133.854 12.4453C133.854 12.9434 134.303 13.4469 135.199 13.9561C136.527 14.6976 137.368 15.2344 137.723 15.5664C138.63 16.4297 139.084 17.5365 139.084 18.8867Z" fill="black"/>
</svg>
