<svg width="101" height="25" viewBox="0 0 101 25" fill="none" xmlns="http://www.w3.org/2000/svg">
<path d="M28.335 9.20801C28.335 9.29655 27.2282 11.665 25.0146 16.3135C24.2731 17.9294 23.1387 20.3421 21.6113 23.5518C21.4674 23.8506 21.318 24 21.1631 24H18.1748C17.9645 24 17.793 23.8506 17.6602 23.5518C16.8411 21.626 15.6624 18.5934 14.124 14.4541C13.3604 16.4906 12.1706 19.5231 10.5547 23.5518C10.4329 23.8506 10.2669 24 10.0566 24H7.08496C6.91895 24 6.764 23.8506 6.62012 23.5518C5.85645 21.9469 4.71094 19.5342 3.18359 16.3135C1.06966 11.9085 0.0126953 9.54004 0.0126953 9.20801C0.0126953 8.30046 0.0403646 6.93359 0.0957031 5.10742C0.151042 3.28125 0.178711 1.91439 0.178711 1.00684C0.178711 0.807617 0.317057 0.708008 0.59375 0.708008C0.792969 0.708008 1.0918 0.724609 1.49023 0.757812C1.89974 0.791016 2.2041 0.807617 2.40332 0.807617C2.59147 0.807617 2.8737 0.796549 3.25 0.774414C3.6263 0.752279 3.90853 0.741211 4.09668 0.741211C4.3291 0.741211 4.44531 0.824219 4.44531 0.990234C4.44531 1.88672 4.38997 3.24251 4.2793 5.05762C4.17969 6.86165 4.12988 8.21191 4.12988 9.1084C4.12988 9.67285 5.24772 12.2295 7.4834 16.7783C8.22493 18.2835 8.62891 19.0361 8.69531 19.0361C8.71745 19.0251 8.74512 18.9863 8.77832 18.9199C8.91113 18.6654 9.19336 17.957 9.625 16.7949C10.4219 14.6367 11.2409 12.1852 12.082 9.44043C12.1152 9.16374 12.1318 8.28939 12.1318 6.81738C12.1318 6.16439 12.1097 5.19043 12.0654 3.89551C12.0322 2.58952 12.0156 1.61003 12.0156 0.957031C12.0156 0.791016 12.1318 0.708008 12.3643 0.708008C12.5745 0.708008 12.89 0.724609 13.3105 0.757812C13.7311 0.791016 14.0521 0.807617 14.2734 0.807617C14.4616 0.807617 14.7438 0.791016 15.1201 0.757812C15.4964 0.724609 15.7786 0.708008 15.9668 0.708008C16.2214 0.708008 16.3486 0.796549 16.3486 0.973633C16.3486 1.6709 16.3265 2.72233 16.2822 4.12793C16.238 5.52246 16.2158 6.56836 16.2158 7.26562C16.2158 8.4056 16.2214 9.09733 16.2324 9.34082C16.2656 9.89421 17.1012 12.3236 18.7393 16.6289C18.9163 17.1159 19.2041 17.8132 19.6025 18.7207C19.6136 18.765 19.6357 18.8037 19.6689 18.8369C19.7354 18.8369 20.1283 18.1009 20.8477 16.6289C23.028 12.1686 24.1182 9.65072 24.1182 9.0752C24.1182 8.16764 24.0684 6.81185 23.9688 5.00781C23.8691 3.20378 23.8193 1.85352 23.8193 0.957031C23.8193 0.791016 23.8636 0.708008 23.9521 0.708008C24.1735 0.708008 24.5 0.724609 24.9316 0.757812C25.3743 0.791016 25.7064 0.807617 25.9277 0.807617C26.127 0.807617 26.4313 0.791016 26.8408 0.757812C27.2503 0.724609 27.5602 0.708008 27.7705 0.708008C28.0029 0.708008 28.1357 0.774414 28.1689 0.907227C28.1689 0.896159 28.1689 1.05111 28.1689 1.37207C28.1689 2.24642 28.1966 3.55241 28.252 5.29004C28.3073 7.02767 28.335 8.33366 28.335 9.20801ZM47.1777 8.97559C47.1777 9.01986 47.1611 9.11947 47.1279 9.27441C46.6963 11.8089 46.4805 13.9948 46.4805 15.832C46.4805 15.9427 46.6188 18.4274 46.8955 23.2861L46.9121 23.5186C46.9232 23.8395 46.7738 24 46.4639 24C46.165 24 45.7057 24.0332 45.0859 24.0996C44.4772 24.1771 44.0234 24.2158 43.7246 24.2158C43.5143 24.2158 43.3538 23.8285 43.2432 23.0537C43.1325 22.279 43.0273 21.8916 42.9277 21.8916C42.8613 21.8916 42.5625 22.1074 42.0312 22.5391C41.3783 23.0703 40.7695 23.4743 40.2051 23.751C39.3307 24.1937 38.4564 24.415 37.582 24.415C35.4349 24.415 33.6253 23.5573 32.1533 21.8418C30.7588 20.2038 30.0615 18.2946 30.0615 16.1143C30.0615 13.6572 30.7643 11.6263 32.1699 10.0215C33.6419 8.35026 35.5788 7.51465 37.9805 7.51465C39.6738 7.51465 41.1514 8.10124 42.4131 9.27441C42.6012 9.49577 42.8945 9.81673 43.293 10.2373C43.3262 10.2705 43.3594 10.2871 43.3926 10.2871C43.459 10.2871 43.5531 9.93848 43.6748 9.24121C43.7965 8.54395 43.9515 8.19531 44.1396 8.19531C44.4385 8.19531 44.9974 8.27832 45.8164 8.44434C46.724 8.64355 47.1777 8.82064 47.1777 8.97559ZM42.9443 15.915C42.9443 14.5537 42.5404 13.3861 41.7324 12.4121C40.8802 11.3607 39.79 10.835 38.4619 10.835C37.1338 10.835 36.027 11.3551 35.1416 12.3955C34.2894 13.3916 33.8633 14.5648 33.8633 15.915C33.8633 17.2542 34.2894 18.4163 35.1416 19.4014C36.027 20.4307 37.1338 20.9453 38.4619 20.9453C39.7568 20.9453 40.8415 20.4196 41.7158 19.3682C42.5348 18.3831 42.9443 17.2321 42.9443 15.915ZM54.1006 0.973633L54.084 1.18945C53.8405 5.30664 53.7188 8.84277 53.7188 11.7979C53.7188 13.1149 53.7409 15.0905 53.7852 17.7246C53.8294 20.3477 53.8516 22.3122 53.8516 23.6182C53.8516 23.8727 53.763 24 53.5859 24H50.415C50.2158 24 50.1162 23.8727 50.1162 23.6182C50.1162 22.3122 50.1273 20.3477 50.1494 17.7246C50.1715 15.0905 50.1826 13.1149 50.1826 11.7979C50.1826 10.6025 50.1217 8.80957 50 6.41895C49.8893 4.01725 49.834 2.22428 49.834 1.04004C49.834 0.818685 49.9502 0.708008 50.1826 0.708008C50.3818 0.708008 50.6807 0.724609 51.0791 0.757812C51.4775 0.791016 51.7764 0.807617 51.9756 0.807617C52.1859 0.807617 52.4958 0.791016 52.9053 0.757812C53.3148 0.724609 53.6191 0.708008 53.8184 0.708008C54.0176 0.708008 54.1117 0.796549 54.1006 0.973633ZM61.6045 0.973633L61.5879 1.18945C61.3444 5.30664 61.2227 8.84277 61.2227 11.7979C61.2227 13.1149 61.2448 15.0905 61.2891 17.7246C61.3333 20.3477 61.3555 22.3122 61.3555 23.6182C61.3555 23.8727 61.2669 24 61.0898 24H57.9189C57.7197 24 57.6201 23.8727 57.6201 23.6182C57.6201 22.3122 57.6312 20.3477 57.6533 17.7246C57.6755 15.0905 57.6865 13.1149 57.6865 11.7979C57.6865 10.6025 57.6257 8.80957 57.5039 6.41895C57.3932 4.01725 57.3379 2.22428 57.3379 1.04004C57.3379 0.818685 57.4541 0.708008 57.6865 0.708008C57.8857 0.708008 58.1846 0.724609 58.583 0.757812C58.9814 0.791016 59.2803 0.807617 59.4795 0.807617C59.6898 0.807617 59.9997 0.791016 60.4092 0.757812C60.8187 0.724609 61.123 0.708008 61.3223 0.708008C61.5215 0.708008 61.6156 0.796549 61.6045 0.973633ZM78.9697 15.085C78.9697 15.904 78.6156 16.4518 77.9072 16.7285C77.4313 16.9056 74.0059 17.2321 67.6309 17.708C67.7747 18.682 68.3115 19.512 69.2412 20.1982C70.1266 20.8512 71.0785 21.1777 72.0967 21.1777C73.8454 21.1777 75.4502 20.6133 76.9111 19.4844C77.0882 19.3405 77.2653 19.1966 77.4424 19.0527C77.5309 19.0527 77.5863 19.0638 77.6084 19.0859C77.6416 19.1081 77.8519 19.4954 78.2393 20.248C78.6266 20.9896 78.8203 21.388 78.8203 21.4434C78.8203 21.5098 78.7318 21.637 78.5547 21.8252C76.9277 23.5518 74.8415 24.415 72.2959 24.415C69.7282 24.415 67.6807 23.6514 66.1533 22.124C64.626 20.5856 63.8623 18.5381 63.8623 15.9814C63.8623 13.7015 64.5928 11.7148 66.0537 10.0215C67.5921 8.26172 69.4792 7.38184 71.7148 7.38184C73.7956 7.38184 75.5332 8.14551 76.9277 9.67285C78.2891 11.1559 78.9697 12.96 78.9697 15.085ZM75.0186 14.0723C75.0186 13.1536 74.6533 12.3402 73.9229 11.6318C73.2035 10.9235 72.39 10.5693 71.4824 10.5693C70.4642 10.5693 69.5566 10.9788 68.7598 11.7979C67.974 12.6169 67.5811 13.5355 67.5811 14.5537C67.5811 14.7861 67.7803 14.9023 68.1787 14.9023C69.8167 14.9023 71.7757 14.7363 74.0557 14.4043C74.6976 14.3158 75.0186 14.2051 75.0186 14.0723ZM90.5576 20.9453C90.5576 21.1888 90.5355 21.5208 90.4912 21.9414C90.4359 22.4616 90.4027 22.7992 90.3916 22.9541C90.3805 23.1533 90.3639 23.2751 90.3418 23.3193C90.2975 23.3968 90.1924 23.4743 90.0264 23.5518C89.1188 23.9834 87.6911 24.1992 85.7432 24.1992C83.1533 24.1992 81.8584 23.026 81.8584 20.6797C81.8584 19.7389 81.8805 18.3278 81.9248 16.4463C81.9691 14.5537 81.9912 13.137 81.9912 12.1963C81.9912 11.7425 81.7643 11.499 81.3105 11.4658C80.901 11.4658 80.4971 11.4603 80.0986 11.4492C79.8662 11.3939 79.75 10.9401 79.75 10.0879C79.75 9.76693 79.7721 9.42936 79.8164 9.0752C79.8496 8.80957 80.0267 8.64909 80.3477 8.59375C80.6243 8.59375 80.8955 8.58822 81.1611 8.57715C81.6702 8.55501 81.9248 8.32812 81.9248 7.89648C81.9248 7.45378 81.9082 6.77865 81.875 5.87109C81.8529 4.96354 81.8418 4.28288 81.8418 3.8291C81.8418 3.02116 81.9967 2.61719 82.3066 2.61719C82.4062 2.61719 83.4466 2.78874 85.4277 3.13184C85.6823 3.16504 85.8096 3.28678 85.8096 3.49707C85.8096 3.98405 85.7708 4.71452 85.6934 5.68848C85.627 6.66243 85.5938 7.3929 85.5938 7.87988C85.5938 8.20085 85.7432 8.36133 86.042 8.36133H90.0264C90.2145 8.36133 90.3086 8.42773 90.3086 8.56055C90.3086 8.69336 90.2865 8.90918 90.2422 9.20801C90.209 9.49577 90.1924 9.71159 90.1924 9.85547C90.1924 10.0215 90.1979 10.276 90.209 10.6191C90.2201 10.9622 90.2256 11.2168 90.2256 11.3828C90.2256 11.5931 90.0706 11.6982 89.7607 11.6982C89.318 11.6982 88.6484 11.6706 87.752 11.6152C86.8555 11.5488 86.1859 11.5156 85.7432 11.5156C85.6546 11.5156 85.5882 11.8311 85.5439 12.4619C85.4886 13.2477 85.4609 14.349 85.4609 15.7656V18.2393C85.4609 19.1911 85.5495 19.8551 85.7266 20.2314C85.9922 20.807 86.54 21.0947 87.3701 21.0947C87.7132 21.0947 88.2168 21.0228 88.8809 20.8789C89.5449 20.724 90.0374 20.6465 90.3584 20.6465C90.4912 20.6465 90.5576 20.7461 90.5576 20.9453ZM100.701 18.8867C100.701 20.5358 100.043 21.8584 98.7256 22.8545C97.5303 23.762 96.0749 24.2158 94.3594 24.2158C93.6953 24.2158 93.319 24.1992 93.2305 24.166C93.0423 24.0775 92.9482 23.8063 92.9482 23.3525C92.9482 23.109 92.915 22.7438 92.8486 22.2568C92.7933 21.7699 92.7656 21.4102 92.7656 21.1777C92.7656 21.0339 92.8652 20.9398 93.0645 20.8955C93.2083 20.8623 93.4131 20.8623 93.6787 20.8955C94.0218 20.9287 94.1878 20.9453 94.1768 20.9453C96.2686 20.9453 97.3145 20.3034 97.3145 19.0195C97.3145 18.4108 96.8551 17.8519 95.9365 17.3428C94.4424 16.5238 93.5846 16.0202 93.3633 15.832C92.4447 15.0462 91.9854 14.0169 91.9854 12.7441C91.9854 11.084 92.6107 9.78906 93.8613 8.85938C94.9902 8.0293 96.418 7.61426 98.1445 7.61426C98.2995 7.61426 98.4102 7.6862 98.4766 7.83008C98.554 7.97396 98.6924 8.4222 98.8916 9.1748C99.1019 9.92741 99.207 10.3812 99.207 10.5361C99.207 10.6579 99.1019 10.7354 98.8916 10.7686C98.1833 10.8682 97.4694 10.9622 96.75 11.0508C95.8978 11.2832 95.4717 11.748 95.4717 12.4453C95.4717 12.9434 95.9199 13.4469 96.8164 13.9561C98.1445 14.6976 98.9857 15.2344 99.3398 15.5664C100.247 16.4297 100.701 17.5365 100.701 18.8867Z" fill="black"/>
</svg>
